<mxfile host="app.diagrams.net" modified="2023-09-22T08:18:40.511Z" agent="Mozilla/5.0 (Windows NT 10.0; Win64; x64) AppleWebKit/537.36 (KHTML, like Gecko) Chrome/116.0.0.0 Safari/537.36" etag="D0-Ox-DKLxBlZ3guIx08" version="21.8.0" type="device">
  <diagram name="1 oldal" id="1agLfdt3giRyNbzVce9e">
    <mxGraphModel dx="1828" dy="2061" grid="1" gridSize="10" guides="1" tooltips="1" connect="1" arrows="1" fold="1" page="1" pageScale="1" pageWidth="827" pageHeight="1169" math="0" shadow="0">
      <root>
        <mxCell id="0" />
        <mxCell id="1" parent="0" />
        <mxCell id="NTZt6BDZC_wJud3Mfsjs-2" value="" style="strokeWidth=1;shadow=0;dashed=0;align=center;html=1;shape=mxgraph.mockup.containers.browserWindow;rSize=0;strokeColor=#666666;strokeColor2=#008cff;strokeColor3=#c4c4c4;mainText=,;recursiveResize=0;" vertex="1" parent="1">
          <mxGeometry x="160" y="-230" width="2030" height="1120" as="geometry" />
        </mxCell>
        <mxCell id="NTZt6BDZC_wJud3Mfsjs-3" value="Page 1" style="strokeWidth=1;shadow=0;dashed=0;align=center;html=1;shape=mxgraph.mockup.containers.anchor;fontSize=17;fontColor=#666666;align=left;whiteSpace=wrap;" vertex="1" parent="NTZt6BDZC_wJud3Mfsjs-2">
          <mxGeometry x="19" y="78" width="110" height="26" as="geometry" />
        </mxCell>
        <mxCell id="AURHdnPnoXGToolGu48F-196" value="&lt;p style=&quot;line-height: 240%; font-size: 22px;&quot;&gt;&lt;font style=&quot;&quot; face=&quot;Comic Sans MS&quot;&gt;FM&lt;/font&gt;&lt;/p&gt;" style="text;html=1;strokeColor=none;fillColor=none;align=center;verticalAlign=middle;whiteSpace=wrap;rounded=0;fontSize=14;" vertex="1" parent="NTZt6BDZC_wJud3Mfsjs-2">
          <mxGeometry x="1960" y="1040" width="60" height="70" as="geometry" />
        </mxCell>
        <mxCell id="AURHdnPnoXGToolGu48F-155" value="" style="shape=image;html=1;verticalAlign=top;verticalLabelPosition=bottom;labelBackgroundColor=#ffffff;imageAspect=0;aspect=fixed;image=https://cdn0.iconfinder.com/data/icons/ie_Bright/128/gold.png" vertex="1" parent="1">
          <mxGeometry x="1048" y="143" width="210" height="210" as="geometry" />
        </mxCell>
        <mxCell id="AURHdnPnoXGToolGu48F-156" value="Icon" style="icon;html=1;image=img/clipart/Gear_128x128.png" vertex="1" parent="1">
          <mxGeometry x="1428" y="23" width="110" height="100" as="geometry" />
        </mxCell>
        <mxCell id="AURHdnPnoXGToolGu48F-157" value="&lt;font style=&quot;font-size: 42px;&quot;&gt;&lt;b&gt;123 456 789 mp&lt;/b&gt;&lt;/font&gt;" style="text;html=1;strokeColor=none;fillColor=none;align=center;verticalAlign=middle;whiteSpace=wrap;rounded=0;fontSize=14;" vertex="1" parent="1">
          <mxGeometry x="998" y="13" width="350" height="120" as="geometry" />
        </mxCell>
        <mxCell id="AURHdnPnoXGToolGu48F-158" value="&lt;font style=&quot;font-size: 42px;&quot;&gt;&lt;b&gt;100 000 M&lt;br&gt;&amp;nbsp;arany&lt;/b&gt;&lt;/font&gt;" style="text;html=1;strokeColor=none;fillColor=none;align=center;verticalAlign=middle;whiteSpace=wrap;rounded=0;fontSize=14;" vertex="1" parent="1">
          <mxGeometry x="978" y="387" width="350" height="120" as="geometry" />
        </mxCell>
        <mxCell id="AURHdnPnoXGToolGu48F-159" value="Icon" style="icon;html=1;image=img/clipart/Gear_128x128.png" vertex="1" parent="1">
          <mxGeometry x="1428" y="387" width="110" height="100" as="geometry" />
        </mxCell>
        <mxCell id="AURHdnPnoXGToolGu48F-160" value="Icon" style="icon;html=1;image=img/clipart/Gear_128x128.png" vertex="1" parent="1">
          <mxGeometry x="1428" y="263" width="110" height="100" as="geometry" />
        </mxCell>
        <mxCell id="AURHdnPnoXGToolGu48F-161" value="Icon" style="icon;html=1;image=img/clipart/Gear_128x128.png" vertex="1" parent="1">
          <mxGeometry x="1428" y="507" width="110" height="100" as="geometry" />
        </mxCell>
        <mxCell id="AURHdnPnoXGToolGu48F-162" value="Icon" style="icon;html=1;image=img/clipart/Gear_128x128.png" vertex="1" parent="1">
          <mxGeometry x="1428" y="143" width="110" height="100" as="geometry" />
        </mxCell>
        <mxCell id="AURHdnPnoXGToolGu48F-163" value="Icon" style="icon;html=1;image=img/clipart/Gear_128x128.png" vertex="1" parent="1">
          <mxGeometry x="1428" y="633" width="110" height="100" as="geometry" />
        </mxCell>
        <mxCell id="AURHdnPnoXGToolGu48F-164" value="&lt;p style=&quot;line-height: 240%; font-size: 22px;&quot;&gt;&lt;font style=&quot;font-size: 22px;&quot;&gt;db: 999&lt;br&gt;ár: 125k&lt;br&gt;&lt;/font&gt;&lt;/p&gt;" style="text;html=1;strokeColor=none;fillColor=none;align=center;verticalAlign=middle;whiteSpace=wrap;rounded=0;fontSize=14;" vertex="1" parent="1">
          <mxGeometry x="1528" y="34" width="150" height="90" as="geometry" />
        </mxCell>
        <mxCell id="AURHdnPnoXGToolGu48F-165" value="Icon" style="icon;html=1;image=img/clipart/Gear_128x128.png" vertex="1" parent="1">
          <mxGeometry x="831" y="23" width="110" height="100" as="geometry" />
        </mxCell>
        <mxCell id="AURHdnPnoXGToolGu48F-166" value="Icon" style="icon;html=1;image=img/clipart/Gear_128x128.png" vertex="1" parent="1">
          <mxGeometry x="831" y="387" width="110" height="100" as="geometry" />
        </mxCell>
        <mxCell id="AURHdnPnoXGToolGu48F-167" value="Icon" style="icon;html=1;image=img/clipart/Gear_128x128.png" vertex="1" parent="1">
          <mxGeometry x="831" y="263" width="110" height="100" as="geometry" />
        </mxCell>
        <mxCell id="AURHdnPnoXGToolGu48F-168" value="Icon" style="icon;html=1;image=img/clipart/Gear_128x128.png" vertex="1" parent="1">
          <mxGeometry x="831" y="507" width="110" height="100" as="geometry" />
        </mxCell>
        <mxCell id="AURHdnPnoXGToolGu48F-169" value="Icon" style="icon;html=1;image=img/clipart/Gear_128x128.png" vertex="1" parent="1">
          <mxGeometry x="831" y="143" width="110" height="100" as="geometry" />
        </mxCell>
        <mxCell id="AURHdnPnoXGToolGu48F-170" value="Icon" style="icon;html=1;image=img/clipart/Gear_128x128.png" vertex="1" parent="1">
          <mxGeometry x="831" y="633" width="110" height="100" as="geometry" />
        </mxCell>
        <mxCell id="AURHdnPnoXGToolGu48F-171" value="&lt;p style=&quot;line-height: 240%; font-size: 22px;&quot;&gt;&lt;font style=&quot;font-size: 22px;&quot;&gt;&lt;b&gt;Erőforrás neve(999k arany / mp)&lt;/b&gt;&lt;br&gt;Erőforrás leírása&lt;/font&gt;&lt;/p&gt;" style="text;html=1;strokeColor=none;fillColor=none;align=left;verticalAlign=middle;whiteSpace=wrap;rounded=0;fontSize=14;" vertex="1" parent="1">
          <mxGeometry x="1661" y="33" width="357" height="90" as="geometry" />
        </mxCell>
        <mxCell id="AURHdnPnoXGToolGu48F-172" value="&lt;p style=&quot;line-height: 240%; font-size: 22px;&quot;&gt;&lt;font style=&quot;font-size: 22px;&quot;&gt;db: 999&lt;br&gt;ár: 125k&lt;br&gt;&lt;/font&gt;&lt;/p&gt;" style="text;html=1;strokeColor=none;fillColor=none;align=center;verticalAlign=middle;whiteSpace=wrap;rounded=0;fontSize=14;" vertex="1" parent="1">
          <mxGeometry x="1527" y="152" width="150" height="90" as="geometry" />
        </mxCell>
        <mxCell id="AURHdnPnoXGToolGu48F-173" value="&lt;p style=&quot;line-height: 240%; font-size: 22px;&quot;&gt;&lt;font style=&quot;font-size: 22px;&quot;&gt;db: 999&lt;br&gt;ár: 125k&lt;br&gt;&lt;/font&gt;&lt;/p&gt;" style="text;html=1;strokeColor=none;fillColor=none;align=center;verticalAlign=middle;whiteSpace=wrap;rounded=0;fontSize=14;" vertex="1" parent="1">
          <mxGeometry x="1526" y="271" width="150" height="90" as="geometry" />
        </mxCell>
        <mxCell id="AURHdnPnoXGToolGu48F-174" value="&lt;p style=&quot;line-height: 240%; font-size: 22px;&quot;&gt;&lt;font style=&quot;font-size: 22px;&quot;&gt;db: 999&lt;br&gt;ár: 125k&lt;br&gt;&lt;/font&gt;&lt;/p&gt;" style="text;html=1;strokeColor=none;fillColor=none;align=center;verticalAlign=middle;whiteSpace=wrap;rounded=0;fontSize=14;" vertex="1" parent="1">
          <mxGeometry x="1525" y="394" width="150" height="90" as="geometry" />
        </mxCell>
        <mxCell id="AURHdnPnoXGToolGu48F-175" value="&lt;p style=&quot;line-height: 240%; font-size: 22px;&quot;&gt;&lt;font style=&quot;font-size: 22px;&quot;&gt;db: 0&lt;br&gt;ár: ???&lt;br&gt;&lt;/font&gt;&lt;/p&gt;" style="text;html=1;strokeColor=none;fillColor=none;align=center;verticalAlign=middle;whiteSpace=wrap;rounded=0;fontSize=14;" vertex="1" parent="1">
          <mxGeometry x="1525" y="517" width="150" height="90" as="geometry" />
        </mxCell>
        <mxCell id="AURHdnPnoXGToolGu48F-176" value="&lt;p style=&quot;line-height: 240%; font-size: 22px;&quot;&gt;&lt;font style=&quot;font-size: 22px;&quot;&gt;db: 0&lt;br&gt;ár: ???&lt;br&gt;&lt;/font&gt;&lt;/p&gt;" style="text;html=1;strokeColor=none;fillColor=none;align=center;verticalAlign=middle;whiteSpace=wrap;rounded=0;fontSize=14;" vertex="1" parent="1">
          <mxGeometry x="1524" y="646" width="150" height="90" as="geometry" />
        </mxCell>
        <mxCell id="AURHdnPnoXGToolGu48F-177" value="&lt;p style=&quot;line-height: 240%; font-size: 22px;&quot;&gt;&lt;font style=&quot;font-size: 22px;&quot;&gt;&lt;b&gt;Erőforrás neve(999k arany / mp)&lt;/b&gt;&lt;br&gt;Erőforrás leírása&lt;/font&gt;&lt;/p&gt;" style="text;html=1;strokeColor=none;fillColor=none;align=left;verticalAlign=middle;whiteSpace=wrap;rounded=0;fontSize=14;" vertex="1" parent="1">
          <mxGeometry x="1661" y="152" width="357" height="90" as="geometry" />
        </mxCell>
        <mxCell id="AURHdnPnoXGToolGu48F-178" value="&lt;p style=&quot;line-height: 240%; font-size: 22px;&quot;&gt;&lt;font style=&quot;font-size: 22px;&quot;&gt;&lt;b&gt;Erőforrás neve(999k arany / mp)&lt;/b&gt;&lt;br&gt;Erőforrás leírása&lt;/font&gt;&lt;/p&gt;" style="text;html=1;strokeColor=none;fillColor=none;align=left;verticalAlign=middle;whiteSpace=wrap;rounded=0;fontSize=14;" vertex="1" parent="1">
          <mxGeometry x="1661" y="270" width="357" height="90" as="geometry" />
        </mxCell>
        <mxCell id="AURHdnPnoXGToolGu48F-179" value="&lt;p style=&quot;line-height: 240%; font-size: 22px;&quot;&gt;&lt;font style=&quot;font-size: 22px;&quot;&gt;&lt;b&gt;Erőforrás neve(999k arany / mp)&lt;/b&gt;&lt;br&gt;Erőforrás leírása&lt;/font&gt;&lt;/p&gt;" style="text;html=1;strokeColor=none;fillColor=none;align=left;verticalAlign=middle;whiteSpace=wrap;rounded=0;fontSize=14;" vertex="1" parent="1">
          <mxGeometry x="1662" y="391" width="357" height="90" as="geometry" />
        </mxCell>
        <mxCell id="AURHdnPnoXGToolGu48F-180" value="&lt;p style=&quot;line-height: 240%; font-size: 22px;&quot;&gt;&lt;font style=&quot;font-size: 22px;&quot;&gt;&lt;b&gt;?????&lt;/b&gt;&lt;br&gt;?????&lt;/font&gt;&lt;/p&gt;" style="text;html=1;strokeColor=none;fillColor=none;align=left;verticalAlign=middle;whiteSpace=wrap;rounded=0;fontSize=14;" vertex="1" parent="1">
          <mxGeometry x="1662" y="515" width="357" height="90" as="geometry" />
        </mxCell>
        <mxCell id="AURHdnPnoXGToolGu48F-181" value="&lt;p style=&quot;line-height: 240%; font-size: 22px;&quot;&gt;&lt;font style=&quot;font-size: 22px;&quot;&gt;&lt;b&gt;?????&lt;/b&gt;&lt;br&gt;?????&lt;/font&gt;&lt;/p&gt;" style="text;html=1;strokeColor=none;fillColor=none;align=left;verticalAlign=middle;whiteSpace=wrap;rounded=0;fontSize=14;" vertex="1" parent="1">
          <mxGeometry x="1662" y="643" width="357" height="90" as="geometry" />
        </mxCell>
        <mxCell id="AURHdnPnoXGToolGu48F-182" value="&lt;p style=&quot;line-height: 240%; font-size: 22px;&quot;&gt;&lt;font style=&quot;font-size: 22px;&quot;&gt;db: 999&lt;br&gt;ár: 125k&lt;br&gt;&lt;/font&gt;&lt;/p&gt;" style="text;html=1;strokeColor=none;fillColor=none;align=right;verticalAlign=middle;whiteSpace=wrap;rounded=0;fontSize=14;" vertex="1" parent="1">
          <mxGeometry x="663" y="34" width="150" height="90" as="geometry" />
        </mxCell>
        <mxCell id="AURHdnPnoXGToolGu48F-183" value="&lt;p style=&quot;line-height: 240%; font-size: 22px;&quot;&gt;&lt;font style=&quot;font-size: 22px;&quot;&gt;db: 999&lt;br&gt;ár: 125k&lt;br&gt;&lt;/font&gt;&lt;/p&gt;" style="text;html=1;strokeColor=none;fillColor=none;align=right;verticalAlign=middle;whiteSpace=wrap;rounded=0;fontSize=14;" vertex="1" parent="1">
          <mxGeometry x="662" y="152" width="150" height="90" as="geometry" />
        </mxCell>
        <mxCell id="AURHdnPnoXGToolGu48F-184" value="&lt;p style=&quot;line-height: 240%; font-size: 22px;&quot;&gt;&lt;font style=&quot;font-size: 22px;&quot;&gt;db: 999&lt;br&gt;ár: 125k&lt;br&gt;&lt;/font&gt;&lt;/p&gt;" style="text;html=1;strokeColor=none;fillColor=none;align=right;verticalAlign=middle;whiteSpace=wrap;rounded=0;fontSize=14;" vertex="1" parent="1">
          <mxGeometry x="661" y="271" width="150" height="90" as="geometry" />
        </mxCell>
        <mxCell id="AURHdnPnoXGToolGu48F-185" value="&lt;p style=&quot;line-height: 240%; font-size: 22px;&quot;&gt;&lt;font style=&quot;font-size: 22px;&quot;&gt;db: 999&lt;br&gt;ár: 125k&lt;br&gt;&lt;/font&gt;&lt;/p&gt;" style="text;html=1;strokeColor=none;fillColor=none;align=right;verticalAlign=middle;whiteSpace=wrap;rounded=0;fontSize=14;" vertex="1" parent="1">
          <mxGeometry x="660" y="394" width="150" height="90" as="geometry" />
        </mxCell>
        <mxCell id="AURHdnPnoXGToolGu48F-186" value="&lt;p style=&quot;line-height: 240%; font-size: 22px;&quot;&gt;&lt;font style=&quot;font-size: 22px;&quot;&gt;db: 0&lt;br&gt;ár: ???&lt;br&gt;&lt;/font&gt;&lt;/p&gt;" style="text;html=1;strokeColor=none;fillColor=none;align=right;verticalAlign=middle;whiteSpace=wrap;rounded=0;fontSize=14;" vertex="1" parent="1">
          <mxGeometry x="660" y="517" width="150" height="90" as="geometry" />
        </mxCell>
        <mxCell id="AURHdnPnoXGToolGu48F-187" value="&lt;p style=&quot;line-height: 240%; font-size: 22px;&quot;&gt;&lt;font style=&quot;font-size: 22px;&quot;&gt;db: 0&lt;br&gt;ár: ???&lt;br&gt;&lt;/font&gt;&lt;/p&gt;" style="text;html=1;strokeColor=none;fillColor=none;align=right;verticalAlign=middle;whiteSpace=wrap;rounded=0;fontSize=14;" vertex="1" parent="1">
          <mxGeometry x="659" y="646" width="150" height="90" as="geometry" />
        </mxCell>
        <mxCell id="AURHdnPnoXGToolGu48F-188" value="&lt;p style=&quot;line-height: 240%; font-size: 22px;&quot;&gt;&lt;font style=&quot;font-size: 22px;&quot;&gt;&lt;b&gt;Erőforrás neve(999k arany / click)&lt;/b&gt;&lt;br&gt;Erőforrás leírása&lt;/font&gt;&lt;/p&gt;" style="text;html=1;strokeColor=none;fillColor=none;align=left;verticalAlign=middle;whiteSpace=wrap;rounded=0;fontSize=14;" vertex="1" parent="1">
          <mxGeometry x="367" y="34" width="357" height="90" as="geometry" />
        </mxCell>
        <mxCell id="AURHdnPnoXGToolGu48F-189" value="&lt;p style=&quot;line-height: 240%; font-size: 22px;&quot;&gt;&lt;font style=&quot;font-size: 22px;&quot;&gt;&lt;b&gt;Erőforrás neve(999k arany / click)&lt;/b&gt;&lt;br&gt;Erőforrás leírása&lt;/font&gt;&lt;/p&gt;" style="text;html=1;strokeColor=none;fillColor=none;align=left;verticalAlign=middle;whiteSpace=wrap;rounded=0;fontSize=14;" vertex="1" parent="1">
          <mxGeometry x="367" y="153" width="357" height="90" as="geometry" />
        </mxCell>
        <mxCell id="AURHdnPnoXGToolGu48F-190" value="&lt;p style=&quot;line-height: 240%; font-size: 22px;&quot;&gt;&lt;font style=&quot;font-size: 22px;&quot;&gt;&lt;b&gt;Erőforrás neve(999k arany / click)&lt;/b&gt;&lt;br&gt;Erőforrás leírása&lt;/font&gt;&lt;/p&gt;" style="text;html=1;strokeColor=none;fillColor=none;align=left;verticalAlign=middle;whiteSpace=wrap;rounded=0;fontSize=14;" vertex="1" parent="1">
          <mxGeometry x="367" y="271" width="357" height="90" as="geometry" />
        </mxCell>
        <mxCell id="AURHdnPnoXGToolGu48F-191" value="&lt;p style=&quot;line-height: 240%; font-size: 22px;&quot;&gt;&lt;font style=&quot;font-size: 22px;&quot;&gt;&lt;b&gt;Erőforrás neve(999k arany / click&lt;/b&gt;&lt;br&gt;Erőforrás leírása&lt;/font&gt;&lt;/p&gt;" style="text;html=1;strokeColor=none;fillColor=none;align=left;verticalAlign=middle;whiteSpace=wrap;rounded=0;fontSize=14;" vertex="1" parent="1">
          <mxGeometry x="368" y="392" width="357" height="90" as="geometry" />
        </mxCell>
        <mxCell id="AURHdnPnoXGToolGu48F-192" value="&lt;p style=&quot;line-height: 240%; font-size: 22px;&quot;&gt;&lt;font style=&quot;font-size: 22px;&quot;&gt;&lt;b&gt;?????&lt;/b&gt;&lt;br&gt;?????&lt;/font&gt;&lt;/p&gt;" style="text;html=1;strokeColor=none;fillColor=none;align=right;verticalAlign=middle;whiteSpace=wrap;rounded=0;fontSize=14;" vertex="1" parent="1">
          <mxGeometry x="368" y="516" width="357" height="90" as="geometry" />
        </mxCell>
        <mxCell id="AURHdnPnoXGToolGu48F-193" value="&lt;p style=&quot;line-height: 240%; font-size: 22px;&quot;&gt;&lt;font style=&quot;font-size: 22px;&quot;&gt;&lt;b&gt;?????&lt;/b&gt;&lt;br&gt;?????&lt;/font&gt;&lt;/p&gt;" style="text;html=1;strokeColor=none;fillColor=none;align=right;verticalAlign=middle;whiteSpace=wrap;rounded=0;fontSize=14;" vertex="1" parent="1">
          <mxGeometry x="368" y="644" width="357" height="90" as="geometry" />
        </mxCell>
        <mxCell id="AURHdnPnoXGToolGu48F-194" value="&lt;font style=&quot;font-size: 22px;&quot;&gt;&lt;span&gt;123 456K arany per click&lt;br&gt;&lt;/span&gt;&lt;/font&gt;" style="text;html=1;strokeColor=none;fillColor=none;align=center;verticalAlign=middle;whiteSpace=wrap;rounded=0;fontSize=14;fontStyle=0" vertex="1" parent="1">
          <mxGeometry x="981" y="513" width="350" height="120" as="geometry" />
        </mxCell>
        <mxCell id="AURHdnPnoXGToolGu48F-195" value="&lt;font style=&quot;font-size: 22px;&quot;&gt;123 456K arany per mp&lt;br&gt;&lt;/font&gt;" style="text;html=1;strokeColor=none;fillColor=none;align=center;verticalAlign=middle;whiteSpace=wrap;rounded=0;fontSize=14;fontStyle=0" vertex="1" parent="1">
          <mxGeometry x="975" y="564" width="350" height="120" as="geometry" />
        </mxCell>
      </root>
    </mxGraphModel>
  </diagram>
</mxfile>
